<?xml version="1.0" standalone="no"?><!DOCTYPE svg PUBLIC "-//W3C//DTD SVG 1.1//EN" "http://www.w3.org/Graphics/SVG/1.1/DTD/svg11.dtd"><svg t="1745063690659" class="icon" viewBox="0 0 1024 1024" version="1.1" xmlns="http://www.w3.org/2000/svg" p-id="4027" xmlns:xlink="http://www.w3.org/1999/xlink" width="200" height="200"><path d="M506.088688 989.649689c-1.882209-15.057671-13.116643-5.234893-14.175385-25.468638-2.529218-47.996325-2.058666-63.465728-62.701081-44.231907-14.940032 4.705522-50.407905 22.93942-44.467183-20.351383 3.352684-24.409896 23.468791-30.703531 16.704603-63.818642-11.763805-8.646397-8.528759-12.293176-42.761432-9.116949-18.586812 1.705752-33.703302 2.882132-52.643027 0.058819-26.468561-3.940875-50.525543-34.232673-45.29065-65.583214 2.352761-14.351842 10.293329-31.291722 1.529295-45.878839-8.881673-14.763575-24.821629-11.352072-43.46726-8.822854-16.88106 2.235123-36.408977 1.882209-49.290343-5.705446-15.587042-9.175768-17.822165-16.469327-16.93988-40.114575 45.055373-7.82293 82.758369 4.999617 118.93207 20.057288 77.405837 32.174007 117.402775 65.642032 176.986447 113.814814 10.999158 8.881673 65.700851 63.936281 69.524088 75.40599 5.352531 3.529142 11.234434 13.822471 14.998852 19.410279 4.411427 6.587731 9.116949 14.057747 13.23428 22.057134 16.763422 32.350464 8.705216 35.879605 22.880601 45.173012 0.235276 0.176457 0.705828 0.411733 0.999924 0.647009 8.646397-8.175845 70.406373-8.822854 107.227083-64.348014 5.823084-8.822854 8.293483-23.351153 5.646626-35.056139-4.999617-22.292411 3.293865-33.762121 18.822088-49.172705 9.116949-9.05813 17.469251-22.292411 29.115418-28.762503 17.116336-9.469863 15.645861-6.117179 36.173701-21.704221 22.410049-17.057517 37.99709-52.52539 25.409819-80.523246-7.175921-15.881137-18.586812-21.174849-1.764571-39.879299 13.763652-15.292947 31.40936-25.645095 45.87884-40.232213 19.93965-20.057288 41.114499-36.114882 53.760589-61.995253 9.05813-18.527993 9.940415-56.877998 2.352761-73.935515-7.411197-16.528146-18.822088-18.998545-26.821476-31.056445 1.294019-5.470169 4.82316-10.646244 6.881826-15.70468 2.41158-5.940722 4.764341-10.88152 7.293559-16.704603 15.292947-34.820863 12.999005-89.816652-0.941104-119.108527-4.705522-9.881596-11.940262-20.233745-19.175002-27.409666-3.882056-3.882056-7.705292-7.23474-11.293253-11.293252-15.469404-17.52807-14.46948-21.527763-36.114882-34.467949-2.646856-1.588114-4.705522-2.588037-7.23474-4.058513-19.704374-11.410891-22.527687-7.117102-22.704144-35.173777-0.235276-36.114882-4.058513-63.701005-25.351-91.816499-8.234664-10.940339-28.409589-25.174543-43.702535-25.468638-5.41135-0.117638-16.939879-1.646933-20.763116 0.529371-14.46948 8.46994-29.644789 45.525926-30.17416 62.995176-0.352914 10.293329-0.117638 13.587195 3.293865 20.821935 2.470399 5.176074 6.117179 10.293329 9.822777 14.175386 11.234434 11.940262 12.999005 11.763805 10.705063 32.58574-4.117332 37.467719-34.056216 62.054072-10.175692 110.873863 5.41135 10.999158 13.175462 17.175155 21.351307 25.233361 6.175998 6.117179 26.821476 30.703531 29.880065 39.291109 3.529142 9.999234 2.352761 21.468944 1.646932 31.056446-0.823466 10.763882-1.588114 21.410125-6.175997 30.527074-10.410967 20.586659-29.58597 33.644483-36.291339 56.877998-15.410585 53.525313 35.938425 21.821858 23.292334 82.581911-5.117255 24.468715-32.938654 28.409589-48.996248 44.173088-9.175768 8.999311-30.644712 23.998162-41.996784 29.997703 0.352914-16.704603 5.176074-38.173547-4.764341-54.525236-10.646244-17.586889-15.11649-13.88129-15.057671-47.172859 0.058819-16.057594 8.528759-33.115111 13.646014-48.466877 3.823237-11.410891 13.2931-37.114805 11.293253-51.113733-1.882209-13.175462-2.470399-13.88129-7.470016-23.704067-3.587961-7.058283-7.646473-12.587271-12.351996-18.70445-4.470246-5.823084-11.234434-10.058053-17.763345-13.2931-21.939496-10.763882-16.998698-9.293406-8.881673-70.935744 2.764494-20.763116 0.705828-35.644329-10.88152-51.878381-14.528299-20.351383-40.702766-25.468638-63.877461-29.291874-10.822701-1.764571-10.763882-9.881596-10.999158-20.057288-0.647009-26.409742 0.470552-32.703378-3.529142-58.583749-2.823313-18.410355-8.46994-30.232979-25.056905-38.467643-27.703761-13.763652-52.172476-4.764341-82.876006-4.646703-16.175232 0.058819-14.998851 1.411657-23.645249-7.411197-17.763346-18.11626-10.175691-21.527763-16.116412-45.996478-1.999847-8.175845-4.82316-15.292947-10.822701-20.233745-20.586659-16.822241-36.585434-27.056752-68.171251-26.52738-7.23474 0.117638-7.82293 1.176381-14.057747 1.470475-20.292564 0.999923-31.350541 4.764341-49.4668 12.646091-5.234893 2.293942-5.705445 2.176304-7.411197 8.117025-8.293483 29.527151-16.116413 81.052617-0.58819 110.050397 7.528835 14.116566 23.057058 18.351536 36.1737 25.93919 42.349698 24.409896 56.70154-0.294095 53.70177 39.408747-1.470476 19.410278-10.528606 28.35077-9.940415 53.760589 0.352914 16.29287 17.116336 28.586046 29.938884 32.174007 16.704603 4.646703 42.114422-1.176381 58.819025 3.293866 11.881443 3.176227 11.587348 4.587884 11.528529 19.527916-0.058819 24.233438-12.410814 61.230605 11.234434 74.8178 14.057747 8.058206 42.055603-2.882132 52.172476 9.940416 8.646397 10.940339-0.411733 42.526155-3.293866 53.11358-3.705599 13.763652-8.999311 39.23229 0.823467 50.996095 4.352608 5.176074 12.469633 9.528682 20.880754 10.175691 13.528376 1.058742 17.822165 0.117638 29.644788 2.823313 5.999541 25.821552-12.881367 47.466954-25.998009 67.171327-11.46971 17.292793-22.057135 52.584209-9.822777 77.347019 12.881367 26.174466 47.231677 25.115724 32.291645 53.878227-3.117408 6.05836-6.234817 8.940492-9.999234 13.998928-3.823237 4.999617-6.352455 9.469863-9.05813 14.940032-5.646626 11.293253-8.46994 23.939343-8.46994 40.938042-5.41135-1.470476-11.293253-7.999387-15.528223-11.293253l-47.996324-35.291415c-52.290114-34.820863-136.40132-80.817341-197.631926-80.464427-31.644636 0.176457-23.762886-4.352608-47.996324 8.46994 0 16.763422-0.999923 27.056752 5.176074 38.585281 11.175615 21.11603 43.114346 25.645095 65.465575 24.939266 15.292947-0.470552 25.527457-7.058283 38.055909 1.352838 0 5.940722 0.529371 12.175538-0.294095 18.057441-2.823313 19.527916-10.528606 24.233438-2.352761 49.584438 9.352225 29.056599 31.879912 49.996172 63.465729 52.290114 7.411197 0.529371 11.881443 1.352838 18.233898 1.588113 13.646014 0.470552 44.64364-6.411274 54.87815-2.646856 9.940415 3.64678-2.470399 24.939267-4.470246 28.938961-9.05813 17.998622-17.410432 37.761814-4.646703 59.230758 16.586965 27.821399 53.172399 3.999694 87.640348-1.823389 13.057824-2.235123 11.940262 10.528606 11.999081 26.409742 0.294095 41.232137 27.17439 48.113963 31.291722 35.173777z" fill="#040000" p-id="4028"></path><path d="M562.378495 838.073061c2.176304 3.470322-0.352914 1.529295 2.470399 0L614.903885 789.959098l35.644329-53.70177c32.644559-46.172935 29.762427-35.467872 61.171787-92.698784 28.468408-51.937199 50.760819-114.520642 63.406909-180.692046 15.292947-79.935056 5.176074-142.694956-24.527533-207.689979-12.0579-26.468561-26.233285-57.407369-34.056216-87.346253-3.293865-12.64609-21.527763-95.404459-17.233975-102.462742 4.470246 1.705752 3.823237 2.529218 5.234894 8.646397 7.175921 31.291722 7.352378 49.407981 18.233898 86.228691 28.468408 96.051468 87.346253 154.51758 67.524241 285.625187-13.2931 88.052081-50.525543 187.69151-100.051163 256.686227-7.528835 10.528606-47.466954 62.701081-49.290343 70.229916-2.117485 4.881979-0.647009 0.882285 0.470552 2.352762 11.293253-3.882056 23.174696-5.940722 36.526615-5.176075 9.763958 0.58819 30.76235 5.764264 37.173624 4.881979l42.055603-27.997856c13.234281-10.23451 23.821705-22.586506 24.409896-47.996324 0.705828-32.232826-42.467336-39.996937 23.645248-93.110518 19.29264-15.528223 59.877768-52.760666 69.759364-72.759134 7.117102-14.46948 10.469787-45.114192 4.705522-62.524624-7.293559-21.998316-31.879912-24.409896-29.174236-42.173241 1.764571-11.352072 16.704603-35.114958 20.586659-50.054991 4.117332-15.70468 3.705599-50.525543 1.588113-67.406603-4.176151-33.409206-22.93942-45.29065-39.82048-65.994947-5.940722-7.293559-10.116872-14.881213-16.88106-19.822011-11.234434-8.175845-37.4089-18.11626-42.584975-28.056675-12.351995-23.821705 4.999617-74.288429-27.233208-115.28529-7.23474-9.234587-28.821322-26.586199-49.760896-22.115954-7.175921 3.293865-20.821935 35.232596-21.998315 53.76059-1.646933 26.233285 21.527763 26.468561 26.762656 48.643334 5.352531 22.645325-6.528912 45.467107-12.881366 61.642338-8.117026 20.704297-8.175845 44.349545 2.117485 63.583367 4.293789 7.999387 12.410814 14.116566 18.116259 19.998468 6.764188 6.999464 10.88152 13.410738 17.52807 20.52784 16.057594 17.292793 20.233745 26.586199 18.586812 59.348397-1.411657 28.115494-6.881826 38.997014-20.586659 55.819255-8.999311 11.057977-28.056675 29.997703-24.821629 53.172399 12.351995 10.469787 28.291951 13.998928 28.468409 39.173471 0.470552 55.995712-26.115647 52.701847-58.995483 79.64096-11.999081 9.881596-35.820786 24.939267-40.173394 28.99778L597.258177 680.026339c-16.939879 22.057135-24.174619 47.05522-26.586199 76.641191-1.117561 13.763652 3.352684 17.822165 5.940721 29.585969 5.293712 24.76281-6.234817 36.585434-14.234204 51.819562z" fill="#56B879" p-id="4029"></path><path d="M201.994327 21.076798c6.352455 11.352072 29.997703 24.998086 41.467413 33.997397 15.998775 12.587271 72.876772 56.289807 82.817187 66.818412 31.526998 33.703302 33.82094 31.40936 61.701158 68.171251 3.176227 4.23497 5.764264 6.587731 9.175768 10.587424 32.526921 38.114728 65.17148 90.169566 84.699396 139.812824 7.23474 18.351536 11.410891 37.526538 17.704527 57.054454 6.293636 19.527916 13.88129 35.644329 20.174926 54.760513 5.823084 17.763346 10.940339 40.761585 15.410584 59.642492 4.470246 19.057364 8.940492 43.584898 10.763882 64.112738 4.117332 46.172935 0.58819 96.227926-6.411274 140.518651-5.528988 35.114958-14.587118 104.286132-2.117485 137.342425 4.529065-8.764035 6.587731-14.998851 11.704987-22.998239 12.528452-19.351459 18.233898-28.35077 9.528682-53.231218-7.764111-22.174773 3.117408-67.230146 13.88129-85.69932 7.881749-13.528376 20.763116-31.821093 30.997626-40.820404-1.352838-6.64655-4.646703-4.470246-3.587961-12.234357 1.352838-9.705139 7.646473-29.174237 2.411581-48.996248-4.058513-15.410585-16.29287-11.352072-19.410279-50.819638-2.940951-37.467719 31.762274-84.052387 24.468715-115.167652-3.999694-17.116336-17.175155-30.76235-32.468102-38.173548-23.233515-11.293253-21.057211-19.822012-17.410432-48.996248 1.82339-14.822394 8.117026-50.996095 3.587961-64.348014-4.587884-13.587195-22.645325-27.292028-39.055833-31.468178-22.292411-5.646626-39.996937 0.235276-44.290726-26.350924-1.529295-9.528682-0.294095-24.939267-0.411733-35.173777-0.117638-11.057977-2.705675-19.998469-3.940875-30.76235-2.882132-24.880448-11.410891-30.585893-35.056139-35.644329-26.52738-5.646626-69.229993 14.175385-90.404842-6.999464-35.879605-35.820786-5.999541-51.231371-33.173931-72.700316-16.175232-12.822548-20.233745-19.527916-50.113809-20.057288-48.408058-0.941104-24.998086-0.764647-62.642262 7.822931z" fill="#56B879" p-id="4030"></path><path d="M465.033008 792.135402c9.469863 6.528912 21.11603 19.645554 29.58597 28.174313l28.291951 29.880065c-1.764571-24.1158-6.175998-43.46726-3.646779-68.877079 10.23451-102.756837 28.880141-156.870341 4.352608-266.803099-15.822318-70.994564-16.763422-56.76036-34.232673-112.461977-5.999541-19.116183-10.410967-39.585204-17.52807-57.466187-16.351689-41.05568-53.937046-107.40354-82.464273-137.63652-12.351995-13.116643-20.351383-28.93896-33.115112-41.64387-35.526691-35.350234-33.115111-38.702919-75.935362-70.876925-9.763958-7.352378-73.112049-56.936817-81.640807-65.700852-5.999541 24.174619-6.823007 44.231907-5.705445 70.229916 1.529295 35.820786 13.822471 35.350234 32.350464 44.820098 8.587578 4.352608 15.410585 9.822777 25.762733 12.293176 12.351995 2.940951 21.233668 0.764647 32.115188 7.470016 17.939803 11.116796 9.822777 40.114575 4.411427 60.113044-2.293942 8.587578-6.293636 24.468715-1.352838 32.879836 16.29287 27.76258 69.288812 2.705675 91.992956 22.29241 23.586429 20.410202-14.351842 87.875624 17.46925 90.051928 14.881213 0.999923 21.586582-0.941104 35.585511 3.64678 50.466724 16.410508-9.999234 106.050703 17.528069 116.579308 19.29264 7.411197 48.525696-6.940645 49.996172 27.644942 1.705752 41.585051-43.584898 60.289501-42.820251 112.991348 0.411733 27.409666 20.645478 31.585817 33.291569 44.820097 17.52807 18.351536 1.2352 41.585051-9.293406 54.819332-15.410585 19.351459-11.587348 35.291415-14.998852 62.7599zM401.449642 835.837938c24.409896 6.411274 33.82094-4.705522 89.875471 24.527533 6.999464 3.64678 18.057441 12.0579 25.93919 11.940262l0.705828-2.41158c-3.823237-11.46971-58.52493-66.524318-69.524088-75.40599-59.583673-48.172782-99.58061-81.640807-176.986447-113.814814-36.173701-14.998851-73.876696-27.880218-118.93207-20.057288-0.882285 23.704067 1.352838 30.997626 16.93988 40.114575 12.881367 7.587654 32.409283 7.999387 49.290343 5.705446 18.645631-2.470399 34.585587-5.940722 43.46726 8.822854 8.764035 14.587118 0.823466 31.526998-1.529295 45.878839-5.176074 31.350541 18.880907 61.642339 45.29065 65.583214 18.998545 2.823313 34.056216 1.646933 52.643027-0.058819 34.232673-3.117408 31.056445 0.529371 42.820251 9.175768z" fill="#56B879" p-id="4031"></path><path d="M506.088688 989.649689c11.940262-2.940951 23.409972-23.292334 46.408211-25.409819 10.293329-0.941104 10.469787-2.41158 17.586889-7.058283a7.058283 7.058283 0 0 0-0.999924-0.647009c-14.234204-9.352225-6.117179-12.881367-22.880601-45.173012-4.176151-7.999387-8.822854-15.469404-13.23428-22.057134-3.764418-5.587807-9.64632-15.881137-14.998852-19.410279l-0.705828 2.41158c-7.940568 0.117638-18.939726-8.293483-25.93919-11.940262-55.995712-29.233056-65.406756-18.11626-89.875471-24.527533 6.764188 33.115111-13.351919 39.408747-16.704603 63.818642-5.940722 43.231984 29.58597 25.056905 44.467183 20.351383 60.642415-19.233821 60.171863-3.705599 62.701081 44.231907 1.058742 20.174926 12.293176 10.410967 14.175385 25.409819zM641.019532 772.783942c-11.940262 6.705369-33.526844 59.76013-38.644099 74.700163-7.646473 22.292411-22.998239 67.288965-25.115724 90.463661 22.115954-3.235046 40.114575-11.999081 55.348703-22.115954 53.995865-35.938425 31.938731-56.230988 34.232672-74.22961 3.764418-29.233056 35.703148-51.466647 48.29042-66.759594-6.411274 0.882285-27.409666-4.293789-37.173624-4.881979-13.351919-0.823466-25.233362 1.294019-36.526615 5.176075-1.117561-1.470476-2.529218 2.529218-0.411733-2.352762zM562.378495 838.073061l-3.529141 4.117331c-6.352455 9.587501-12.940186 29.174237-11.352072 39.996938 0.647009 4.23497 17.410432 34.585587 20.52784 38.408823l20.586659-67.053689c11.175615-35.703148 13.469557-34.40913 26.292104-63.642185l-50.054991 48.172782c-2.764494 1.529295-0.235276 3.529142-2.470399 0z" fill="#008B76" p-id="4032"></path><path d="M733.247764 998.119629l0.411733-0.411733c-0.058819 0.058819-0.58819 0.294095-0.411733 0.411733z" fill="#56B879" p-id="4033"></path></svg>